<svg id="Layer_1" enable-background="new 0 0 128 128" height="512" viewBox="0 0 128 128" width="512" xmlns="http://www.w3.org/2000/svg"><path d="m116.102 75.347c-.535-.204-1.141.067-1.345.606-.396 1.044-1.501 1.857-2.748 2.024-.293.039-.629.041-.979.007.449-.654.755-1.347.831-2.073.224-2.112-1.145-3.413-2.614-3.606-1.466-.194-3.13.721-3.463 2.844-.186 1.195.17 2.293 1.032 3.174.158.161.329.311.51.45-.263.209-.528.406-.79.598-1.033-2.632-2.368-5.141-3.986-7.486-1.605-2.994-3.619-5.764-5.962-8.275 3.504-4.743 5.391-10.579 5.391-17.316 0-3.76-.568-7.329-1.629-10.654 4.162-1.826 7.572-4.305 7.574-7.082 0-.256-.094-.503-.265-.695l-15.559-17.453c-1.24-1.392-3.087-2.06-4.922-1.791-1.873.275-3.472 1.469-4.279 3.195-.491 1.051-.905 2.112-1.25 3.172-5.658-2.63-12.253-4.087-19.468-4.087-7.494 0-14.313 1.58-20.114 4.406-.365-1.167-.807-2.335-1.348-3.491-.806-1.726-2.406-2.92-4.279-3.195-1.839-.268-3.682.4-4.923 1.791l-15.56 17.453c-.17.192-.264.439-.264.695.002 2.922 3.778 5.515 8.234 7.364-1.004 3.245-1.545 6.717-1.545 10.372 0 6.143 1.571 11.536 4.503 16.036-7.165 7.094-11.528 16.416-11.528 26.621 0 4.323.818 8.291 2.377 11.86-.92 1.926-1.442 4.133-1.442 6.462 0 1.164.14 2.286.38 3.36-.222.204-.424.422-.591.657-1.325 1.869-.804 4.401 1.326 6.449 2.614 2.513 5.898 3.798 8.977 3.798 2.588 0 5.033-.908 6.812-2.759.512-.532.939-1.119 1.292-1.743 7.905 4.415 18.328 6.536 29.757 6.536 9.786 0 18.831-1.558 26.194-4.775 1.777 1.838 4.213 2.741 6.794 2.741 3.079 0 6.364-1.285 8.977-3.798 2.13-2.048 2.65-4.58 1.326-6.449-.286-.404-.662-.762-1.108-1.067.185-.949.293-1.934.293-2.95 0-1.04-.122-2.049-.316-3.028 1.65-3.542 2.556-7.587 2.556-12.164 0-3.699-.599-7.274-1.695-10.666.707-.492 1.444-1.034 2.119-1.633 1.007.295 2.052.375 2.899.262 2.017-.269 3.754-1.585 4.423-3.352.205-.538-.066-1.141-.605-1.345zm-7.202 1.975c-.224-.133-.425-.286-.593-.458-.399-.409-.546-.852-.462-1.393.128-.819.583-1.106 1.005-1.106.042 0 .084.003.124.008.433.057.906.436.812 1.317-.054.516-.396 1.076-.886 1.632z" fill="#e6e7e8"/><path d="m64.26 71.894c-2.136.832-4.594 1.251-7.215 1.251-2.917 0-5.63-.523-7.923-1.554-10.837-1.478-19.918-5.802-25.128-13.265-7.306 6.966-11.768 16.251-11.768 26.451 0 21.612 20.02 31.49 44.716 31.49s44.716-9.877 44.716-31.49c0-9.616-3.97-18.417-10.546-25.23-5.772 7.286-15.48 11.298-26.852 12.347z" fill="#fff"/><path d="m104.788 87.908c0-11.102-5.291-21.115-13.776-28.238-5.783 7.208-15.444 11.181-26.752 12.224-2.136.832-4.594 1.251-7.215 1.251-2.917 0-5.63-.523-7.923-1.554-9.07-1.237-16.913-4.466-22.284-9.861-7.136 6.934-11.483 16.11-11.483 26.177 0 2.385.257 4.618.724 6.719-1.793 2.162-2.918 5.15-2.918 8.472 0 6.585 4.364 11.922 9.747 11.922 2.396 0 4.588-1.062 6.285-2.817 8.028 4.861 18.898 7.193 30.878 7.193 10.446 0 20.047-1.775 27.659-5.45 1.229.684 2.589 1.074 4.027 1.074 5.383 0 9.747-5.338 9.747-11.922 0-.486-.038-.96-.084-1.431 2.166-3.905 3.368-8.48 3.368-13.759z" fill="#ffd7e5"/><path d="m82.01 103.099c0-.114.009-.225.011-.339-2.135-1.268-4.404-2.375-6.78-3.31.077 2.906.26 5.18-.141 7.013-.769 2.368-4.815-1.513-6.069-4.081-1.208 3.466-5.361 5.453-5.361 2.682v-8.596c-2.183-.288-4.418-.44-6.694-.44-1.42 0-2.817.078-4.202.192v8.844c0 2.771-4.153.784-5.361-2.682-1.254 2.567-5.3 6.449-6.069 4.081-.442-2.018-.176-4.576-.123-7.919-3.033 1.004-5.912 2.283-8.591 3.81.012.247.025.494.025.745 0 3.12-.988 5.951-2.592 8.076 7.482 3.43 16.783 5.092 26.878 5.092 10.357 0 19.885-1.743 27.464-5.357-1.488-2.093-2.395-4.82-2.395-7.811z" fill="#fff"/><path d="m88.629 99.62c-4.403 4.233-5.132 10.618-1.63 14.261 3.503 3.643 9.912 3.165 14.314-1.069 4.403-4.233-.118-9.144-7.645-5.344 4.403-7.049-.637-12.081-5.039-7.848z" fill="#fa759e"/><path d="m26.641 99.62c4.403 4.233 5.132 10.618 1.63 14.261-3.503 3.643-9.912 3.165-14.314-1.069-4.403-4.233.118-9.144 7.645-5.344-4.403-7.049.636-12.081 5.039-7.848z" fill="#fa759e"/><path d="m102.709 24.384-15.561-17.453c-2.172-2.436-6.096-1.806-7.478 1.151-.659 1.411-1.171 2.842-1.565 4.268-5.86-2.963-12.74-4.581-20.098-4.581-7.636 0-14.749 1.75-20.75 4.93-.405-1.541-.944-3.09-1.657-4.616-1.382-2.957-5.306-3.587-7.478-1.151l-15.561 17.452c.002 2.461 3.869 4.972 8.483 6.755-1.163 3.378-1.794 7.053-1.794 10.982 0 17.709 12.751 27.136 29.872 29.471 2.293 1.031 5.006 1.554 7.923 1.554 2.621 0 5.079-.419 7.215-1.251 18.43-1.701 32.503-11.168 32.503-29.774 0-4.029-.667-7.788-1.888-11.236 4.323-1.763 7.832-4.156 7.834-6.501z" fill="#ffd7e5"/><g fill="#fa759e"><path d="m51.902 58.637c-1.04 0-1.883 1.303-1.883 2.911s.843 2.911 1.883 2.911 1.883-1.303 1.883-2.911-.843-2.911-1.883-2.911z"/><path d="m62.187 58.637c-1.04 0-1.883 1.303-1.883 2.911s.843 2.911 1.883 2.911 1.883-1.303 1.883-2.911-.843-2.911-1.883-2.911z"/><ellipse cx="38.551" cy="47.956" rx="2.92" ry="1.853"/><ellipse cx="75.538" cy="47.956" rx="2.92" ry="1.853"/><path d="m41.221 98.551c-.053 3.34-.318 5.895.123 7.912.769 2.368 4.815-1.513 6.069-4.081 1.208 3.466 5.361 5.453 5.361 2.682v-6.114c-3.689-2.146-8.182-2.816-11.553-.399z"/><path d="m63.671 98.142v6.923c0 2.771 4.153.784 5.361-2.682 1.254 2.567 5.3 6.449 6.069 4.081.431-1.971.189-4.459.128-7.688-3.614-2.321-7.855-3.175-11.558-.634z"/></g><path d="m111.913 71.214c-.518-.196-1.093.064-1.29.581-.4 1.059-1.519 1.882-2.781 2.051-.315.042-.682.042-1.063 0 .468-.667.787-1.373.865-2.113.222-2.085-1.129-3.368-2.578-3.559-1.448-.186-3.085.714-3.413 2.808-.185 1.181.168 2.266 1.019 3.137.17.173.354.333.551.479-.581.464-1.177.887-1.708 1.249-.083-.322-.164-.644-.256-.962-.153-.53-.701-.835-1.238-.684-.53.153-.837.708-.684 1.238.515 1.781.883 3.615 1.097 5.452.059.51.491.885.992.885.038 0 .077-.002.116-.007.549-.063.941-.56.878-1.108-.106-.91-.251-1.819-.427-2.723.989-.659 2.174-1.458 3.209-2.377 1.004.299 2.053.379 2.904.267 2.002-.267 3.724-1.572 4.389-3.324.195-.517-.065-1.094-.582-1.29zm-7.179 1.989c-.239-.14-.454-.3-.632-.482-.404-.414-.559-.881-.473-1.43.132-.847.605-1.143 1.046-1.143.044 0 .088.003.131.009.452.059.946.452.85 1.365-.056.533-.412 1.109-.922 1.681z" fill="#3a2c60"/><path d="m102.209 106.069c.19-.954.295-1.947.295-2.97 0-2.676-.689-5.19-1.887-7.295 1.337-3.35 2.041-7.036 2.041-11.027 0-.552-.447-1-1-1s-1 .448-1 1c0 3.254-.481 6.281-1.406 9.069-.781-.911-1.674-1.703-2.685-2.311-.477-.285-1.089-.132-1.373.342-.284.473-.131 1.088.342 1.372 3.019 1.814 4.969 5.681 4.969 9.85 0 .749-.082 1.47-.198 2.176-1.263-.283-2.804-.242-4.573.286 1.293-3.468.436-6.255-1.188-7.572-1.865-1.513-4.46-1.157-6.609.91-2.297 2.208-3.746 5.035-4.08 7.959-.03.263-.039.522-.051.781-.509-1.383-.795-2.921-.795-4.54 0-2.41.618-4.696 1.789-6.61.288-.471.14-1.087-.332-1.375s-1.088-.14-1.375.332c-1.362 2.229-2.082 4.875-2.082 7.653 0 2.771.734 5.335 1.975 7.439-6.914 3.071-15.673 4.729-26.043 4.729-10.062 0-18.605-1.561-25.422-4.457 1.339-2.153 2.135-4.82 2.135-7.711 0-2.778-.72-5.424-2.082-7.653-.289-.471-.902-.62-1.375-.332-.471.288-.62.904-.332 1.375 1.17 1.915 1.789 4.201 1.789 6.61 0 1.063-.132 2.086-.362 3.057-.455-2.58-1.786-5.167-3.959-7.256-2.149-2.067-4.744-2.425-6.609-.91-1.623 1.317-2.48 4.104-1.188 7.571-2.05-.611-3.787-.564-5.145-.118-.135-.758-.23-1.535-.23-2.343 0-4.169 1.95-8.035 4.968-9.85.474-.285.626-.899.342-1.372s-.898-.627-1.372-.342c-1.255.754-2.332 1.786-3.226 2.994-1.081-2.975-1.648-6.23-1.648-9.753 0-9.543 4.048-18.272 10.714-24.967 5.192 6.758 13.752 11.215 24.912 12.76 2.31 1.018 5.068 1.575 8.194 1.575 2.782 0 5.267-.447 7.411-1.26 11.784-1.099 20.933-5.272 26.636-11.869 2.806 3.047 5.106 6.486 6.742 10.249.221.506.809.741 1.315.519.507-.22.739-.809.519-1.315-1.765-4.06-4.26-7.764-7.31-11.028 3.513-4.742 5.406-10.579 5.406-17.32 0-3.77-.581-7.341-1.65-10.672 4.17-1.821 7.594-4.296 7.596-7.064 0-.246-.09-.483-.254-.667l-15.563-17.452c-1.23-1.381-3.06-2.046-4.884-1.777-1.858.272-3.446 1.458-4.247 3.17-.502 1.074-.922 2.158-1.272 3.242-5.664-2.645-12.255-4.132-19.486-4.132-7.508 0-14.332 1.596-20.137 4.434-.368-1.184-.815-2.37-1.364-3.544-.8-1.713-2.388-2.898-4.246-3.17-1.827-.265-3.653.397-4.885 1.777l-15.56 17.452c-.164.184-.253.42-.253.667.002 2.911 3.789 5.497 8.249 7.341-1.012 3.252-1.56 6.73-1.56 10.395 0 6.151 1.578 11.548 4.522 16.049-7.172 7.088-11.547 16.403-11.547 26.607 0 4.319.828 8.279 2.389 11.843-.927 1.928-1.453 4.142-1.453 6.479 0 1.17.138 2.299.385 3.376-.227.207-.434.427-.603.666-1.312 1.851-.793 4.36 1.321 6.393 2.605 2.505 5.878 3.787 8.947 3.786 2.577 0 5.01-.904 6.781-2.746.623-.648 1.114-1.38 1.501-2.16 7.147 3.138 16.058 4.853 26.449 4.853 10.727 0 19.879-1.825 27.138-5.161.41.504.855.966 1.329 1.384.263.379.546.746.87 1.084 1.771 1.842 4.203 2.746 6.78 2.746 3.068 0 6.343-1.281 8.948-3.786 2.114-2.033 2.632-4.542 1.32-6.393-.288-.406-.667-.767-1.118-1.072zm-45.164-33.923c-6.681 0-13.819-2.948-13.819-11.223 0-7.62 6.199-13.819 13.819-13.819s13.819 6.199 13.819 13.819c-.001 8.274-7.139 11.223-13.819 11.223zm23.531-63.641c.515-1.102 1.533-1.864 2.725-2.038.176-.026.352-.039.524-.039.983 0 1.902.411 2.577 1.168l15.267 17.124c-.464 2.042-4.971 4.779-10.843 6.523-6.183 1.835-10.274 1.585-10.854.698-1.023-1.566-4.225-13.102.604-23.436zm-66.976 16.216 15.268-17.124c.794-.891 1.924-1.301 3.102-1.129 1.191.174 2.209.937 2.724 2.038 4.829 10.332 1.626 21.87.603 23.437-.579.887-4.673 1.138-10.856-.699-5.872-1.745-10.376-4.482-10.841-6.523zm8.088 7.728c.725.258 1.457.496 2.182.711 1.143.34 5.187 1.465 8.558 1.465 2 0 3.765-.397 4.543-1.589.981-1.503 3.672-10.391 1.442-19.842 5.614-2.826 12.257-4.425 19.593-4.425 7.047 0 13.457 1.473 18.928 4.092-2.374 9.576.371 18.655 1.364 20.174.778 1.193 2.542 1.589 4.543 1.589 3.369 0 7.411-1.125 8.554-1.463.949-.282 1.907-.605 2.85-.958.984 3.099 1.517 6.418 1.517 9.917 0 15.223-9.887 25.306-26.959 28.196 2.593-2.29 4.06-5.505 4.06-9.395 0-8.723-7.097-15.819-15.819-15.819-8.723 0-15.819 7.096-15.819 15.819 0 3.627 1.276 6.667 3.55 8.919-15.571-3.41-24.525-13.236-24.525-27.719 0-3.407.504-6.644 1.438-9.672zm-7.039 79.643c-1.381-1.328-1.793-2.782-1.075-3.795.514-.726 1.568-1.186 2.989-1.186 1.274 0 2.845.37 4.587 1.25.4.202.886.113 1.189-.218s.348-.823.11-1.204c-2.115-3.387-1.835-6.285-.465-7.396 1.048-.851 2.566-.543 3.963.798 3.998 3.844 4.717 9.608 1.602 12.848-3.114 3.239-8.901 2.748-12.9-1.097zm85.971 0c-3.999 3.844-9.785 4.335-12.9 1.096-1.483-1.543-2.15-3.711-1.877-6.103.281-2.463 1.517-4.858 3.479-6.745.872-.839 1.793-1.273 2.616-1.273.494 0 .953.156 1.346.475 1.37 1.112 1.651 4.009-.465 7.396-.237.381-.192.873.11 1.204.303.332.791.42 1.188.218 3.687-1.859 6.602-1.44 7.577-.064.719 1.014.307 2.468-1.074 3.796z" fill="#3a2c60"/><circle cx="42.689" cy="38.814" fill="#3a2c60" r="3.47"/><circle cx="71.4" cy="38.814" fill="#3a2c60" r="3.47"/><path d="m40.393 106.772c.275.846.898 1.365 1.711 1.422.047.003.095.005.143.005 1.682 0 3.765-2.005 5.075-3.791 1.25 1.874 3.243 3.184 4.757 2.93.819-.139 1.695-.809 1.695-2.274v-17.652c0-.552-.448-1-1-1s-1 .448-1 1v9.209c-3.665-2.304-7.228-1.048-9.55.661-.013-3.391-.317-7.559-1.715-12.688-.146-.533-.696-.849-1.228-.702-.533.146-.847.695-.702 1.228 1.885 6.912 1.707 12.075 1.576 15.845-.076 2.198-.141 4.095.238 5.807zm1.928-.523c-.001-.005-.002-.01-.003-.015.003.002.007.005.01.008-.002-.001-.007-.003-.007.007zm9.09-7.445c.111.087.234.146.363.18v6.081c0 .202-.055.306-.012.298-.054.019-.297.027-.73-.177-.912-.429-2.138-1.593-2.675-3.133-.133-.381-.482-.645-.885-.669-.4-.031-.781.196-.958.559-1.006 2.06-3.406 4.214-4.204 4.257-.288-1.363-.23-3.044-.157-5.166.012-.339.023-.703.034-1.064.961-1.004 4.88-4.584 9.224-1.166z" fill="#3a2c60"/><path d="m77.164 83.893c-.528-.144-1.082.168-1.228.702-1.399 5.129-1.702 9.297-1.716 12.688-2.322-1.709-5.885-2.965-9.55-.662v-9.209c0-.552-.448-1-1-1s-1 .448-1 1v17.652c0 1.465.875 2.135 1.695 2.274 1.517.253 3.505-1.057 4.757-2.93 1.311 1.785 3.393 3.791 5.074 3.791.048 0 .096-.001.144-.005.813-.057 1.436-.575 1.736-1.517.354-1.617.289-3.514.213-5.71-.131-3.771-.31-8.934 1.576-15.846.147-.533-.168-1.083-.701-1.228zm-3.014 22.261c-.006.019-.012.034-.017.047-.8-.046-3.196-2.199-4.202-4.257-.176-.362-.534-.587-.958-.559-.403.024-.752.288-.885.669-.537 1.54-1.763 2.704-2.675 3.133-.434.205-.679.196-.69.208-.014-.021-.051-.124-.051-.33v-6.082c.128-.034.252-.092.363-.179 4.325-3.401 8.259.168 9.224 1.17.011.36.022.724.034 1.062.072 2.146.131 3.842-.143 5.118z" fill="#3a2c60"/></svg>