<svg xmlns="http://www.w3.org/2000/svg" xmlns:xlink="http://www.w3.org/1999/xlink" id="Capa_1" x="0" y="0" version="1.1" viewBox="0 0 511.999 511.999" xml:space="preserve" style="enable-background:new 0 0 511.999 511.999"><g><g><path d="M246.982,345.293c-1.327-6.914-5.386-12.658-11.137-15.757c-5.751-3.099-12.782-3.33-19.284-0.637 c-6.069,2.514-11.249,7.309-14.587,13.501s-4.494,13.157-3.257,19.608c1.327,6.915,5.386,12.659,11.136,15.757 c3.142,1.693,6.556,2.494,10.008,2.494c9.196,0,18.653-5.69,23.864-15.358C247.063,358.708,248.219,351.744,246.982,345.293z M230.52,357.785c-3.186,5.915-9.391,9.019-13.551,6.776c-2.415-1.301-3.242-3.929-3.521-5.379 c-0.58-3.026,0.051-6.548,1.73-9.666c1.68-3.116,4.274-5.58,7.121-6.758c0.809-0.335,2.069-0.736,3.466-0.736 c0.958,0,1.98,0.189,2.963,0.719c2.416,1.302,3.243,3.929,3.521,5.38C232.831,351.145,232.2,354.668,230.52,357.785z"/></g></g><g><g><path d="M310.017,342.4c-7.167-13.296-22.359-19.067-33.873-12.864c-11.51,6.203-15.044,22.068-7.879,35.365c0,0,0,0,0,0.001 c5.212,9.669,14.667,15.358,23.865,15.358c3.451,0,6.867-0.801,10.007-2.494c5.751-3.099,9.81-8.843,11.137-15.758 C314.511,355.557,313.355,348.593,310.017,342.4z M298.543,359.182c-0.278,1.45-1.105,4.078-3.521,5.379 c-4.155,2.243-10.363-0.861-13.551-6.777v0.001c-3.188-5.915-2.367-12.804,1.79-15.045c4.161-2.239,10.365,0.862,13.552,6.776 C298.492,352.634,299.123,356.156,298.543,359.182z"/></g></g><g><g><path d="M498.778,91.992c11.987-37.588,13.174-71.932,13.218-73.375c0.119-3.853-2.701-7.168-6.522-7.668 c-37.695-4.932-76.56,4.266-115.514,27.341c-28.517,16.894-50.241,37.308-62.094,49.703 c-23.292-11.615-47.419-17.495-71.869-17.495c-24.448,0-48.574,5.879-71.864,17.492c-11.854-12.395-33.577-32.808-62.092-49.7 C83.084,15.214,44.223,6.016,6.526,10.949c-3.821,0.5-6.642,3.816-6.522,7.668c0.044,1.443,1.23,35.787,13.218,73.375 c15.055,47.211,40.646,78.136,74.312,90.066C62.49,224.38,48.089,273.299,48.089,318.486c0,49.293,21.75,95.58,61.243,130.334 c39.222,34.515,91.309,53.523,146.664,53.523c55.355,0,107.441-19.008,146.663-53.523c39.493-34.754,61.243-81.041,61.243-130.334 c0-45.185-14.401-94.104-39.443-136.425C458.129,170.132,483.722,139.206,498.778,91.992z M170.513,95.504 c-7.651,4.622-15.085,9.806-22.282,15.546c-12.943-29.155-33.827-53.093-62.22-71.209c-4.199-2.679-8.388-5.114-12.534-7.337 C118.233,47.069,153.633,78.403,170.513,95.504z M15.663,27.463c27.198,5.695,93.049,26.193,120.64,93.813 c-9.821,9.014-19.146,19.104-27.91,30.243c-4.431,5.632-8.645,11.469-12.645,17.466C32.079,149.497,18.425,57.264,15.663,27.463z M448.904,318.486c-0.002,93.108-86.539,168.858-192.908,168.858S63.089,411.594,63.089,318.486 c0-53.305,21.343-112.255,57.092-157.691c18.233-23.173,38.939-41.509,61.545-54.5c24.015-13.8,49.003-20.797,74.271-20.797 s50.256,6.997,74.271,20.797c22.605,12.99,43.312,31.326,61.544,54.5C427.561,206.231,448.904,265.181,448.904,318.486z M416.245,168.987c-4.001-5.997-8.215-11.835-12.646-17.468c-8.759-11.133-18.08-21.219-27.895-30.23 c2.102-5.144,4.475-10.168,7.107-14.958c1.995-3.63,0.67-8.19-2.96-10.186c-3.628-1.994-8.189-0.669-10.185,2.96 c-2.124,3.863-4.083,7.867-5.899,11.95c-7.197-5.74-14.632-10.926-22.284-15.548c16.909-17.131,52.406-48.543,97.271-63.076 c-16.719,8.88-34.121,21.255-49.286,38.488c-2.737,3.109-2.435,7.849,0.675,10.585c1.425,1.254,3.192,1.87,4.952,1.87 c2.08,0,4.15-0.861,5.633-2.545c31.685-36.005,74.219-48.954,95.61-53.381C493.578,57.241,479.928,149.502,416.245,168.987z"/></g></g><g><g><path d="M324.926,299.254c-18.059-17.486-42.524-27.116-68.892-27.115c-55.562,0-97.461,41.661-97.461,96.907 c0,13.935,4.21,24.865,12.515,32.487c2.921,2.681,6.23,4.816,9.807,6.523c10.402,27.704,36.96,46.19,66.7,46.19h16.801 c29.78,0,56.174-18.352,66.629-45.977c3.66-1.732,7.056-3.913,10.07-6.68c8.296-7.619,12.503-18.568,12.503-32.542 C353.598,341.944,343.416,317.158,324.926,299.254z M264.396,439.246h-16.801c-19.47,0-37.217-10.031-47.394-25.925 c13.423,1.669,27.882,0.435,39.907-0.599c6.012-0.516,11.689-1.003,15.959-1.003c4.397,0,10.17,0.493,16.281,1.014 c8.154,0.696,17.013,1.451,25.808,1.451c4.574,0,9.126-0.216,13.558-0.739C301.544,429.28,283.893,439.246,264.396,439.246z M330.95,390.54c-12.094,11.105-38.239,8.875-57.326,7.247c-6.438-0.549-12.521-1.068-17.557-1.068 c-4.912,0-10.901,0.514-17.242,1.059c-19.159,1.643-45.4,3.897-57.595-7.296c-5.152-4.729-7.657-11.741-7.657-21.436 c0-23.012,8.545-43.973,24.06-59.02c15.219-14.759,35.959-22.888,58.401-22.888c22.451,0,43.212,8.129,58.457,22.892 c15.546,15.053,24.107,36.012,24.107,59.016C338.598,378.783,336.096,385.814,330.95,390.54z"/></g></g><g><g><path d="M191.866,230.823c-4.143,0-7.5,3.358-7.5,7.5v8.017c0,9.125-7.424,16.549-16.549,16.549s-16.549-7.424-16.549-16.549 v-8.017c0-9.125,7.424-16.549,16.549-16.549c4.143,0,7.5-3.358,7.5-7.5c0-4.142-3.357-7.5-7.5-7.5 c-17.396,0-31.549,14.153-31.549,31.549v8.017c0,17.396,14.152,31.549,31.549,31.549s31.549-14.153,31.549-31.549v-8.017 C199.366,234.181,196.009,230.823,191.866,230.823z"/></g></g><g><g><path d="M368.223,230.823c-4.143,0-7.5,3.358-7.5,7.5v8.017c0,9.125-7.424,16.549-16.549,16.549s-16.549-7.424-16.549-16.549 v-8.017c0-9.125,7.424-16.549,16.549-16.549c4.143,0,7.5-3.358,7.5-7.5c0-4.142-3.357-7.5-7.5-7.5 c-17.396,0-31.549,14.153-31.549,31.549v8.017c0,17.396,14.152,31.549,31.549,31.549c17.397,0,31.549-14.153,31.549-31.549v-8.017 C375.723,234.181,372.366,230.823,368.223,230.823z"/></g></g></svg>