<?xml version="1.0" encoding="iso-8859-1"?>
<!-- Generator: Adobe Illustrator 19.0.0, SVG Export Plug-In . SVG Version: 6.00 Build 0)  -->
<svg version="1.1" id="Capa_1" xmlns="http://www.w3.org/2000/svg" xmlns:xlink="http://www.w3.org/1999/xlink" x="0px" y="0px"
	 viewBox="0 0 511.999 511.999" style="enable-background:new 0 0 511.999 511.999;" xml:space="preserve">
<path style="fill:#FF96A0;" d="M503.991,18.897c0,0-7.992,139.492-103.992,163.492l-72-80C352,70.389,420.192,7.928,503.991,18.897z
	"/>
<path style="fill:#E6646E;" d="M415.621,177.13l-50.242-33.209l-5.912-6.57c14.93-34.91,58.861-101.65,130.668-119.544
	c4.574,0.173,9.182,0.479,13.857,1.09C503.992,18.897,496.855,142.815,415.621,177.13z"/>
<path style="fill:#FF96A0;" d="M8.008,18.897c0,0,7.992,139.492,103.992,163.492l72-80C160,70.389,91.808,7.928,8.008,18.897z"/>
<path style="fill:#E6646E;" d="M96.379,177.13l50.242-33.209l5.912-6.57c-14.93-34.91-58.861-101.65-130.668-119.544
	c-4.574,0.173-9.182,0.479-13.857,1.09C8.008,18.897,15.144,142.815,96.379,177.13z"/>
<path style="fill:#FFAAB4;" d="M456,318.389c0,97.202-89.543,176-200,176s-200-78.798-200-176c0-112,89.543-240,200-240
	S456,206.389,456,318.389z"/>
<path style="fill:#DC4655;" d="M187.468,399.273c8.61,27.42,32.287,47.116,60.148,47.116h16.767c28.159,0,52.045-20.12,60.419-48
	L187.468,399.273z"/>
<path style="fill:#E6646E;" d="M345.92,368.846c0,51.331-62.9,35.102-89.849,35.102c-26.388,0-89.811,16.229-89.811-35.102
	c0-52.426,40.166-89.226,89.778-89.226S345.92,316.419,345.92,368.846z"/>
<path style="fill:#FF96A0;" d="M125.333,321.26c0-95.146,54.421-200.872,130.741-242.869L256,78.389c-110.457,0-200,128-200,240
	c0,91.725,79.747,167.025,181.549,175.225C171.104,462.432,125.333,396.981,125.333,321.26z"/>
<g>
	
		<ellipse transform="matrix(0.4744 -0.8803 0.8803 0.4744 -193.9899 382.0349)" style="fill:#A5465A;" cx="222.935" cy="353.472" rx="19.854" ry="16.181"/>
	
		<ellipse transform="matrix(0.4744 0.8803 -0.8803 0.4744 463.1123 -68.6924)" style="fill:#A5465A;" cx="289.082" cy="353.481" rx="19.854" ry="16.181"/>
</g>
<path style="fill:#4B3F4E;" d="M168,270.389L168,270.389c-13.255,0-24-10.745-24-24v-8c0-13.255,10.745-24,24-24l0,0
	c13.255,0,24,10.745,24,24v8C192,259.643,181.255,270.389,168,270.389z"/>
<path style="fill:#5D5360;" d="M168,214.389v28c0,6.627,5.373,12,12,12s12-5.373,12-12v-4C192,225.134,181.255,214.389,168,214.389z
	"/>
<circle style="fill:#FFFFFF;" cx="168" cy="230.39" r="8"/>
<path style="fill:#4B3F4E;" d="M344,270.389L344,270.389c-13.255,0-24-10.745-24-24v-8c0-13.255,10.745-24,24-24l0,0
	c13.255,0,24,10.745,24,24v8C368,259.643,357.255,270.389,344,270.389z"/>
<path style="fill:#5D5360;" d="M344,214.389v28c0,6.627,5.373,12,12,12s12-5.373,12-12v-4C368,225.134,357.255,214.389,344,214.389z
	"/>
<circle style="fill:#FFFFFF;" cx="344" cy="230.39" r="8"/>
<path d="M235.845,329.536c-5.751-3.099-12.782-3.33-19.284-0.637c-6.069,2.514-11.249,7.309-14.587,13.501
	s-4.494,13.157-3.257,19.608c1.327,6.915,5.386,12.659,11.136,15.757c3.142,1.693,6.556,2.494,10.008,2.494
	c9.196,0,18.653-5.69,23.864-15.358c3.338-6.193,4.494-13.157,3.257-19.608C245.655,338.379,241.596,332.635,235.845,329.536z
	 M230.52,357.785c-3.186,5.915-9.391,9.019-13.551,6.776c-2.415-1.301-3.242-3.929-3.521-5.379c-0.58-3.026,0.051-6.548,1.73-9.666
	c1.68-3.116,4.274-5.58,7.121-6.758c0.809-0.335,2.069-0.736,3.466-0.736c0.958,0,1.98,0.189,2.963,0.719
	c2.416,1.302,3.243,3.929,3.521,5.38C232.831,351.145,232.2,354.668,230.52,357.785z"/>
<path d="M276.144,329.536c-11.51,6.203-15.044,22.068-7.879,35.365c0,0,0,0,0,0.001c5.212,9.669,14.667,15.358,23.865,15.358
	c3.451,0,6.867-0.801,10.007-2.494c5.751-3.099,9.81-8.843,11.137-15.758c1.237-6.451,0.081-13.415-3.257-19.608
	C302.85,329.104,287.658,323.333,276.144,329.536z M298.543,359.182c-0.278,1.45-1.105,4.078-3.521,5.379
	c-4.155,2.243-10.363-0.861-13.551-6.777v0.001c-3.188-5.915-2.367-12.804,1.79-15.045c4.161-2.239,10.365,0.862,13.552,6.776
	C298.492,352.634,299.123,356.156,298.543,359.182z"/>
<path d="M498.778,91.992c11.987-37.588,13.174-71.932,13.218-73.375c0.119-3.853-2.701-7.168-6.522-7.668
	c-37.695-4.932-76.56,4.266-115.514,27.341c-28.517,16.894-50.241,37.308-62.094,49.703c-23.292-11.615-47.419-17.495-71.869-17.495
	c-24.448,0-48.574,5.879-71.864,17.492c-11.854-12.395-33.577-32.808-62.092-49.7C83.084,15.214,44.223,6.016,6.526,10.949
	c-3.821,0.5-6.642,3.816-6.522,7.668c0.044,1.443,1.23,35.787,13.218,73.375c15.055,47.211,40.646,78.136,74.312,90.066
	C62.49,224.38,48.089,273.299,48.089,318.486c0,49.293,21.75,95.58,61.243,130.334c39.222,34.515,91.309,53.523,146.664,53.523
	s107.441-19.008,146.663-53.523c39.493-34.754,61.243-81.041,61.243-130.334c0-45.185-14.401-94.104-39.443-136.425
	C458.129,170.132,483.722,139.206,498.778,91.992z M170.513,95.504c-7.651,4.622-15.085,9.806-22.282,15.546
	c-12.943-29.155-33.827-53.093-62.22-71.209c-4.199-2.679-8.388-5.114-12.534-7.337C118.233,47.069,153.633,78.403,170.513,95.504z
	 M15.663,27.463c27.198,5.695,93.049,26.193,120.64,93.813c-9.821,9.014-19.146,19.104-27.91,30.243
	c-4.431,5.632-8.645,11.469-12.645,17.466C32.079,149.497,18.425,57.264,15.663,27.463z M255.996,487.344
	c-106.369,0-192.907-75.75-192.907-168.858c0-53.305,21.343-112.255,57.092-157.691c18.233-23.173,38.939-41.509,61.545-54.5
	c24.015-13.8,49.003-20.797,74.271-20.797s50.256,6.997,74.271,20.797c22.605,12.99,43.312,31.326,61.544,54.5
	c35.749,45.436,57.092,104.386,57.092,157.691C448.902,411.594,362.365,487.344,255.996,487.344z M416.245,168.987
	c-4.001-5.997-8.215-11.835-12.646-17.468c-8.759-11.133-18.08-21.219-27.895-30.23c2.102-5.144,4.475-10.168,7.107-14.958
	c1.995-3.63,0.67-8.19-2.96-10.186c-3.628-1.994-8.189-0.669-10.185,2.96c-2.124,3.863-4.083,7.867-5.899,11.95
	c-7.197-5.74-14.632-10.926-22.284-15.548c16.909-17.131,52.406-48.543,97.271-63.076c-16.719,8.88-34.121,21.255-49.286,38.488
	c-2.737,3.109-2.435,7.849,0.675,10.585c1.425,1.254,3.192,1.87,4.952,1.87c2.08,0,4.15-0.861,5.633-2.545
	c31.685-36.005,74.219-48.954,95.61-53.381C493.578,57.241,479.928,149.502,416.245,168.987z"/>
<path d="M324.926,299.254c-18.059-17.486-42.524-27.116-68.892-27.115c-55.562,0-97.461,41.661-97.461,96.907
	c0,13.935,4.21,24.865,12.515,32.487c2.921,2.681,6.23,4.816,9.807,6.523c10.402,27.704,36.96,46.19,66.7,46.19h16.801
	c29.78,0,56.174-18.352,66.629-45.977c3.66-1.732,7.056-3.913,10.07-6.68c8.296-7.619,12.503-18.568,12.503-32.542
	C353.598,341.944,343.416,317.158,324.926,299.254z M264.396,439.246h-16.801c-19.47,0-37.217-10.031-47.394-25.925
	c13.423,1.669,27.882,0.435,39.907-0.599c6.012-0.516,11.689-1.003,15.959-1.003c4.397,0,10.17,0.493,16.281,1.014
	c8.154,0.696,17.013,1.451,25.808,1.451c4.574,0,9.126-0.216,13.558-0.739C301.544,429.28,283.893,439.246,264.396,439.246z
	 M330.95,390.54c-12.094,11.105-38.239,8.875-57.326,7.247c-6.438-0.549-12.521-1.068-17.557-1.068
	c-4.912,0-10.901,0.514-17.242,1.059c-19.159,1.643-45.4,3.897-57.595-7.296c-5.152-4.729-7.657-11.741-7.657-21.436
	c0-23.012,8.545-43.973,24.06-59.02c15.219-14.759,35.959-22.888,58.401-22.888c22.451,0,43.212,8.129,58.457,22.892
	c15.546,15.053,24.107,36.012,24.107,59.016C338.598,378.783,336.096,385.814,330.95,390.54z"/>
<path d="M199.366,246.34v-8.017c0-4.142-3.357-7.5-7.5-7.5s-7.5,3.358-7.5,7.5v8.017c0,9.125-7.424,16.549-16.549,16.549
	s-16.549-7.424-16.549-16.549v-8.017c0-9.125,7.424-16.549,16.549-16.549c4.143,0,7.5-3.358,7.5-7.5s-3.357-7.5-7.5-7.5
	c-17.396,0-31.549,14.153-31.549,31.549v8.017c0,17.396,14.152,31.549,31.549,31.549S199.366,263.736,199.366,246.34z"/>
<path d="M368.223,230.823c-4.143,0-7.5,3.358-7.5,7.5v8.017c0,9.125-7.424,16.549-16.549,16.549s-16.549-7.424-16.549-16.549v-8.017
	c0-9.125,7.424-16.549,16.549-16.549c4.143,0,7.5-3.358,7.5-7.5s-3.357-7.5-7.5-7.5c-17.396,0-31.549,14.153-31.549,31.549v8.017
	c0,17.396,14.152,31.549,31.549,31.549s31.549-14.153,31.549-31.549v-8.017C375.723,234.181,372.366,230.823,368.223,230.823z"/>
<g>
</g>
<g>
</g>
<g>
</g>
<g>
</g>
<g>
</g>
<g>
</g>
<g>
</g>
<g>
</g>
<g>
</g>
<g>
</g>
<g>
</g>
<g>
</g>
<g>
</g>
<g>
</g>
<g>
</g>
</svg>
