<svg id="Layer_1" enable-background="new 0 0 511.994 511.994" height="512" viewBox="0 0 511.994 511.994" width="512" xmlns="http://www.w3.org/2000/svg"><g><path d="m511.994 53.311c.028-3.759-2.339-5.725-5.391-7.251-41.182-12.784-76.722-12.302-105.634 1.438-21.581 10.256-35.5 26.129-44.028 39.442-28.518-14.362-60.706-22.465-94.755-22.465-37.367 0-73.064 9.768-104.165 27.357-16.357-28.404-58.725-74.96-152.705-45.748-3.309.973-5.545 4.295-5.297 7.717.08 1.103 2.091 27.336 13.773 55.101 4.061 9.651 8.797 18.279 14.155 25.856 2.695 3.882 5.557 7.497 8.59 10.829 11.737 12.898 25.763 21.554 41.809 25.831-4.01 7.067-7.649 14.413-10.874 22.024-3.784 8.928 10.026 14.782 13.811 5.854 30.513-71.997 102.653-119.82 180.904-119.82 70.008 0 122.77 36.088 164.407 89.095 20.211 30.864 31.984 67.728 31.984 107.295v89.027c0 52.548-42.751 95.3-95.3 95.3h-202.182c-52.549 0-95.3-42.751-95.3-95.3v-89.027c0-13.413 1.362-26.824 4.05-39.861 1.957-9.498-12.734-12.524-14.691-3.028-2.892 14.032-4.358 28.462-4.358 42.89v89.027c0 60.819 49.48 110.3 110.3 110.3h202.181c60.82 0 110.3-49.48 110.3-110.3v-89.027c0-39.398-10.846-76.305-29.691-107.915 27.412-11.203 45.645-36.522 56.066-63.368 10.147-26.146 11.954-49.79 12.027-50.784.004-.163.009-.326.014-.489zm-403.032 9.963c18.08 9.873 29.418 24.33 36.269 36.402-7.264 4.82-14.229 10.091-20.854 15.783-38.063-34.544-69.739-52.225-90.258-61.093 29.167-5.293 54.27-2.325 74.843 8.908zm-22.001 94.245c-14.902-2.774-27.78-9.869-38.533-21.219-15.072-16.151-25.761-40.542-31.645-72.598 16.661 5.78 51.773 21.601 96.527 61.978-9.735 9.654-18.57 20.304-26.349 31.839zm320.446-96.474c19.847-9.432 43.653-11.622 70.986-6.583-19.32 8.482-48.884 24.891-84.851 55.903-7.416-5.898-15.237-11.306-23.412-16.182 7.415-11.334 19.251-24.572 37.277-33.138zm-2.33 59.184c30.194-25.761 55.244-40.41 71.321-48.276 7.625-3.73 13.961-6.307 18.783-8.048-4.115 22.36-10.564 41.02-19.247 55.738-9.138 15.168-22.137 28.701-40.568 35.145-8.831-12.592-18.994-24.181-30.289-34.559z"/><path d="m222.091 417.618h80.19c19.164 0 37.332-6.149 52.541-17.784 7.703-5.892-1.41-17.803-9.113-11.914-12.57 9.615-27.587 14.698-43.427 14.698h-80.19c-39.459 0-71.562-32.103-71.562-71.562s32.103-71.562 71.562-71.562h80.19c39.459 0 71.562 32.103 71.562 71.562 0 9.897-1.996 19.499-5.932 28.537-3.872 8.892 9.88 14.878 13.753 5.989 4.763-10.939 7.179-22.555 7.179-34.526 0-47.73-38.832-86.562-86.562-86.562h-80.19c-47.73 0-86.562 38.832-86.562 86.562s38.831 86.562 86.561 86.562z"/><path d="m213.504 349.38c-9.697 0-9.697 15 0 15 18.382 0 33.337-14.949 33.337-33.323 0-18.375-14.955-33.324-33.337-33.324s-33.336 14.949-33.336 33.324c0 9.697 15 9.697 15 0 0-10.104 8.226-18.324 18.336-18.324s18.337 8.22 18.337 18.324-8.227 18.323-18.337 18.323z"/><path d="m310.869 312.733c10.111 0 18.336 8.22 18.336 18.324 0 9.697 15 9.697 15 0 0-18.375-14.955-33.324-33.336-33.324s-33.337 14.949-33.337 33.324 14.955 33.323 33.337 33.323c9.697 0 9.697-15 0-15-10.111 0-18.337-8.22-18.337-18.323s8.226-18.324 18.337-18.324z"/><path d="m163.135 221.681c5.894-5.894 13.622-9.219 21.762-9.365 8.006-.156 15.53 2.842 21.096 8.407 6.856 6.858 17.463-3.749 10.606-10.606-8.47-8.471-19.833-13.013-31.971-12.798-12.045.216-23.445 5.101-32.1 13.756-6.857 6.856 3.751 17.463 10.607 10.606z"/><path d="m318.379 220.723c5.566-5.565 13.097-8.551 21.096-8.407 8.14.146 15.869 3.472 21.762 9.365 6.857 6.857 17.464-3.75 10.606-10.606-8.655-8.655-20.055-13.541-32.1-13.756-12.15-.216-23.501 4.327-31.971 12.798-6.856 6.857 3.75 17.463 10.607 10.606z"/></g></svg>