<svg id="Layer_1" enable-background="new 0 0 497 497" height="512" viewBox="0 0 497 497" width="512" xmlns="http://www.w3.org/2000/svg"><g><g fill="#ffb0bc"><path d="m153.065 108.544s-27.371-101.886-153.065-62.794c0 0 9.822 135.604 121.149 109.847z"/><path d="m343.935 108.544s27.371-101.886 153.065-62.794c0 0-9.822 135.604-121.149 109.847z"/></g><path d="m497 45.75s-56.242 10.886-134.871 89.617l13.722 20.23c0-.001 100.649 35.805 121.149-109.847z" fill="#ff8093"/><path d="m453.86 63.839c-13.529 64.827-44.965 87.023-71.994 93.403 21.992 4.975 97.665 12.628 115.134-111.492 0 0-16.113 3.123-43.14 18.089z" fill="#fa697f"/><path d="m0 45.75s56.242 10.886 134.871 89.617l-13.722 20.23c0-.001-100.649 35.805-121.149-109.847z" fill="#ff8093"/><path d="m355.778 460.183h-202.182c-56.775 0-102.8-46.025-102.8-102.8v-89.027c0-112.606 91.285-203.89 203.89-203.89 112.606 0 203.89 91.285 203.89 203.89v89.027c.002 56.774-46.024 102.8-102.798 102.8z" fill="#ffb0bc"/><path d="m254.687 64.465c-6.749 0-13.419.337-20 .978 103.218 10.05 183.891 97.056 183.891 202.913v89.026c0 56.775-46.025 102.8-102.8 102.8h40c56.775 0 102.8-46.025 102.8-102.8v-89.026c0-112.606-91.285-203.891-203.891-203.891z" fill="#ff9cab"/><path d="m294.782 402.609h-80.19c-43.665 0-79.062-35.397-79.062-79.062 0-43.665 35.397-79.062 79.062-79.062h80.19c43.665 0 79.062 35.397 79.062 79.062 0 43.665-35.397 79.062-79.062 79.062z" fill="#ff8093"/><path d="m294.782 244.486h-40c43.665 0 79.062 35.397 79.062 79.062 0 43.665-35.397 79.062-79.062 79.062h40c43.665 0 79.062-35.397 79.062-79.062 0-43.665-35.397-79.062-79.062-79.062z" fill="#fa697f"/><g><g><path d="m206.004 356.871c-4.142 0-7.5-3.358-7.5-7.5s3.358-7.5 7.5-7.5c10.111 0 18.337-8.22 18.337-18.323s-8.226-18.324-18.337-18.324-18.336 8.22-18.336 18.324c0 4.142-3.358 7.5-7.5 7.5s-7.5-3.358-7.5-7.5c0-18.375 14.955-33.324 33.336-33.324s33.337 14.949 33.337 33.324c0 18.374-14.955 33.323-33.337 33.323z" fill="#fc435f"/></g><g><path d="m303.37 356.871c-18.382 0-33.337-14.949-33.337-33.323 0-18.375 14.955-33.324 33.337-33.324s33.336 14.949 33.336 33.324c0 4.142-3.358 7.5-7.5 7.5s-7.5-3.358-7.5-7.5c0-10.104-8.226-18.324-18.336-18.324s-18.337 8.22-18.337 18.324 8.226 18.323 18.337 18.323c4.142 0 7.5 3.358 7.5 7.5s-3.358 7.5-7.5 7.5z" fill="#fc435f"/></g></g><g><g><path d="m150.333 216.369c-1.919 0-3.839-.732-5.303-2.197-2.929-2.929-2.929-7.678 0-10.606 8.655-8.655 20.055-13.541 32.1-13.756 12.139-.215 23.501 4.328 31.971 12.798 2.929 2.929 2.929 7.678 0 10.606-2.929 2.929-7.678 2.93-10.606 0-5.565-5.565-13.089-8.563-21.096-8.407-8.14.146-15.869 3.472-21.762 9.365-1.465 1.465-3.385 2.197-5.304 2.197z" fill="#fff"/></g><g><path d="m359.041 216.369c-1.919 0-3.839-.732-5.303-2.197-5.894-5.894-13.622-9.219-21.762-9.365-7.999-.144-15.53 2.842-21.096 8.407-2.929 2.929-7.678 2.93-10.606 0-2.929-2.929-2.929-7.677 0-10.606 8.47-8.471 19.821-13.015 31.971-12.798 12.045.216 23.445 5.101 32.1 13.756 2.929 2.929 2.929 7.678 0 10.606-1.465 1.465-3.385 2.197-5.304 2.197z" fill="#fff"/></g></g></g></svg>