<svg height="512" viewBox="0 0 512 512" width="512" xmlns="http://www.w3.org/2000/svg"><g id="filled_outline" data-name="filled outline"><path d="m488 256c0 128.13-103.87 232-232 232a232 232 0 1 1 0-464c128.13 0 232 103.87 232 232z" fill="#fc466b"/><path d="m320 184a36.93 36.93 0 0 0 33.747-21.931l22.253-50.069h-26.434a90.692 90.692 0 0 0 -64.129 26.563l-5.437 5.437v40z" fill="#de9a9e"/><path d="m408 320-8 64-60.49 16.82-27.46 7.63-19.49 5.42a276.961 276.961 0 0 1 -74.21 10.13h-.64a283.842 283.842 0 0 1 -35.2-2.18c-18.93-2.37-46.51-5.82-46.51-5.82l-16 24-1.66 2.76a232.032 232.032 0 0 1 -44.74-330.14l151.22 9.76a110.119 110.119 0 0 1 101.54 91.8 135.336 135.336 0 0 0 58.42 90.34z" fill="#f9adb1"/><g fill="#de9a9e"><path d="m128 176a76.169 76.169 0 0 1 53.451-72.7l74.549-23.3-29.328 58.657a81.991 81.991 0 0 1 -59.855 44.207 33.248 33.248 0 0 1 -13.522-.54z"/><circle cx="256" cy="248" r="24"/><path d="m339.51 400.82-27.46 7.63-2.58-.86a58.89 58.89 0 0 1 -37.06-37.06 8 8 0 1 1 15.18-5.06 42.82 42.82 0 0 0 26.94 26.94l24 8a6.529 6.529 0 0 1 .98.41z"/></g><path d="m256 16a240 240 0 0 0 -169.7 409.705 240 240 0 1 0 339.405-339.405 238.427 238.427 0 0 0 -169.705-70.3zm-224 240a222.3 222.3 0 0 1 45.315-135.124l60 3.873a83.977 83.977 0 0 0 -17.315 51.251 8 8 0 0 0 16 0 67.879 67.879 0 0 1 23.555-51.6 7.987 7.987 0 0 0 1.044-.882 68.421 68.421 0 0 1 23.238-12.58l56.6-17.687-13.3 26.607c-.014.028-.028.055-.041.083l-26.243 52.486a8 8 0 1 0 14.31 7.156l23.619-47.238a102.166 102.166 0 0 1 79.7 83.158 143.373 143.373 0 0 0 61.873 95.678l19.1 12.738-6.725 53.807-66.656 18.538-11.536-3.848a42.826 42.826 0 0 1 -26.942-26.942 8 8 0 0 0 -15.178 5.062 58.943 58.943 0 0 0 27.641 32.955l-9.636 2.677a268.976 268.976 0 0 1 -72.073 9.832h-.64a277.669 277.669 0 0 1 -34.206-2.118l-46.511-5.82a8.018 8.018 0 0 0 -7.649 3.5l-13.038 19.558a228.163 228.163 0 0 1 -18.7-16.728 222.535 222.535 0 0 1 -65.606-158.392zm261.652-114.216a82.09 82.09 0 0 1 55.918-21.784h14.12l-17.251 38.821a28.947 28.947 0 0 1 -24.82 17.119 117.2 117.2 0 0 0 -27.967-34.156zm120.74 272.608a224.112 224.112 0 0 1 -285.233 26.291l10.754-16.131 41.608 5.207a293.75 293.75 0 0 0 36.189 2.241h.64a284.953 284.953 0 0 0 76.35-10.422l33.093-9.195c.07-.018.141-.036.21-.056l74.14-20.62a8 8 0 0 0 5.794-6.715l8-64a8 8 0 0 0 -3.5-7.648l-23.218-15.48a127.374 127.374 0 0 1 -54.968-85 119.312 119.312 0 0 0 -5.744-21.684 44.986 44.986 0 0 0 32.553-25.863l22.25-50.07a8 8 0 0 0 -7.31-11.247h-26.43a98.025 98.025 0 0 0 -69.077 28.21 118.667 118.667 0 0 0 -34.359-14.59l17.021-34.042a8 8 0 0 0 -9.542-11.214l-74.548 23.3a84.6 84.6 0 0 0 -26.823 14.018l-62.3-4.021q3.723-4.1 7.668-8.05a224 224 0 0 1 316.782 316.781z"/><circle cx="256" cy="248" r="24"/></g></svg>