<svg xmlns="http://www.w3.org/2000/svg" height="512pt" version="1.1" viewBox="0 -16 512 512" width="512pt">
<g id="surface1">
<path d="M 187.121094 382.089844 C 204.730469 388.65625 227.394531 390 256 390 C 284.605469 390 307.269531 388.65625 324.878906 382.089844 C 348.511719 373.277344 361 355.265625 361 330 C 361 280.375 313.898438 240 256 240 C 198.101562 240 151 280.375 151 330 C 151 355.265625 163.488281 373.277344 187.121094 382.089844 Z M 256 270 C 297.355469 270 331 296.914062 331 330 C 331 353.269531 314.179688 360 256 360 C 197.820312 360 181 353.269531 181 330 C 181 296.914062 214.644531 270 256 270 Z M 256 270 " style=" stroke:none;fill-rule:nonzero;fill:rgb(0%,0%,0%);fill-opacity:1;" />
<path d="M 241 315 C 241 323.285156 234.285156 330 226 330 C 217.714844 330 211 323.285156 211 315 C 211 306.714844 217.714844 300 226 300 C 234.285156 300 241 306.714844 241 315 Z M 241 315 " style=" stroke:none;fill-rule:nonzero;fill:rgb(0%,0%,0%);fill-opacity:1;" />
<path d="M 301 315 C 301 323.285156 294.285156 330 286 330 C 277.714844 330 271 323.285156 271 315 C 271 306.714844 277.714844 300 286 300 C 294.285156 300 301 306.714844 301 315 Z M 301 315 " style=" stroke:none;fill-rule:nonzero;fill:rgb(0%,0%,0%);fill-opacity:1;" />
<path d="M 331 195 C 331 203.285156 324.285156 210 316 210 C 307.714844 210 301 203.285156 301 195 C 301 186.714844 307.714844 180 316 180 C 324.285156 180 331 186.714844 331 195 Z M 331 195 " style=" stroke:none;fill-rule:nonzero;fill:rgb(0%,0%,0%);fill-opacity:1;" />
<path d="M 211 195 C 211 203.285156 204.285156 210 196 210 C 187.714844 210 181 203.285156 181 195 C 181 186.714844 187.714844 180 196 180 C 204.285156 180 211 186.714844 211 195 Z M 211 195 " style=" stroke:none;fill-rule:nonzero;fill:rgb(0%,0%,0%);fill-opacity:1;" />
<path d="M 106.785156 176.855469 C 77.792969 217.953125 61 267.839844 61 315 C 61 422.933594 148.105469 480 256 480 C 363.980469 480 451 422.859375 451 315 C 451 267.839844 434.207031 217.953125 405.214844 176.855469 C 466.210938 163.546875 512 109.488281 512 45 L 512 15 C 512 6.714844 505.285156 0 497 0 L 406 0 C 350.808594 0 305.429688 42.804688 301.304688 96.957031 C 286.421875 92.332031 271.257812 90 256 90 C 240.742188 90 225.578125 92.332031 210.695312 96.957031 C 206.570312 42.804688 161.191406 0 106 0 L 15 0 C 6.714844 0 0 6.714844 0 15 L 0 45 C 0 109.488281 45.789062 163.546875 106.785156 176.855469 Z M 482 31.046875 L 482 45 C 482 97.855469 442.371094 141.714844 391 148.953125 L 391 135 C 391 82.144531 430.628906 38.285156 482 31.046875 Z M 106 30 C 147.355469 30 181 63.644531 181 105 L 181 118.703125 C 181 123.828125 183.617188 128.601562 187.941406 131.355469 C 192.265625 134.109375 197.691406 134.464844 202.339844 132.300781 C 219.839844 124.136719 237.894531 120 256 120 C 274.105469 120 292.160156 124.136719 309.660156 132.300781 C 314.308594 134.464844 319.734375 134.109375 324.058594 131.355469 C 328.382812 128.601562 331 123.828125 331 118.703125 L 331 105 C 331 63.644531 364.644531 29.898438 406 29.898438 L 411.605469 29.898438 C 380.757812 54.667969 361 92.636719 361 135 L 361 165 C 361 170.21875 363.667969 174.8125 367.714844 177.5 C 401.144531 216.246094 421 267.316406 421 315 C 421 414.535156 335.765625 450 256 450 C 176.234375 450 91 414.535156 91 315 C 91 267.316406 110.855469 216.246094 144.285156 177.5 C 148.332031 174.8125 151 170.21875 151 165 L 151 135 C 151 92.636719 131.242188 54.769531 100.390625 30 Z M 30 31.046875 C 81.371094 38.285156 121 82.144531 121 135 L 121 148.953125 C 69.628906 141.714844 30 97.855469 30 45 Z M 30 31.046875 " style=" stroke:none;fill-rule:nonzero;fill:rgb(0%,0%,0%);fill-opacity:1;" />
</g>
</svg>