<svg height="512pt" viewBox="0 -15 512 512" width="512pt" xmlns="http://www.w3.org/2000/svg"><path d="m256 360c58.183594 0 75-6.722656 75-30 0-33.089844-33.648438-60-75-60s-76 26.910156-76 60c0 23.277344 17.816406 30 76 30zm30-60c8.285156 0 15 6.714844 15 15s-6.714844 15-15 15-15-6.714844-15-15 6.714844-15 15-15zm-61 0c8.285156 0 15 6.714844 15 15s-6.714844 15-15 15-15-6.714844-15-15 6.714844-15 15-15zm0 0"/><path d="m150 105v30c0 24.8125-20.1875 45-45 45-.277344 0-.53125-.082031-.808594-.082031-27.800781 40.546875-44.191406 88.996093-44.191406 135.082031 0 100.238281 77.539062 166 196 166s195-65.761719 195-166c0-46.085938-16.390625-94.535156-44.191406-135.082031-.277344.003906-.53125.082031-.808594.082031-24.8125 0-45-20.1875-45-45v-30c0-42.628906 20.246094-80.238281 51.195312-105h-6.195312c-55.195312 0-100.574219 42.804688-104.691406 96.957031-29.765625-9.257812-61.851563-9.257812-91.617188 0-4.117187-54.152343-49.496094-96.957031-104.691406-96.957031h-6.195312c30.949218 24.761719 51.195312 62.371094 51.195312 105zm166 75c8.285156 0 15 6.714844 15 15s-6.714844 15-15 15-15-6.714844-15-15 6.714844-15 15-15zm-121 0c8.285156 0 15 6.714844 15 15s-6.714844 15-15 15-15-6.714844-15-15 6.714844-15 15-15zm61 60c57.890625 0 105 40.371094 105 90 0 60-65.726562 60-105 60s-106 0-106-60c0-49.628906 48.109375-90 106-90zm0 0"/><path d="m105 150c8.285156 0 15-6.714844 15-15v-30c0-57.988281-47.011719-105-105-105-8.285156 0-15 6.714844-15 15v30c0 57.988281 47.011719 105 105 105zm0 0"/><path d="m391 135c0 8.285156 6.714844 15 15 15 57.988281 0 106-47.011719 106-105v-30c0-8.285156-6.714844-15-15-15-57.988281 0-106 47.011719-106 105zm0 0"/></svg>