<svg xmlns="http://www.w3.org/2000/svg" width="512pt" height="512pt" version="1.1" viewBox="0 -16 512 512"><g id="surface1"><path d="M 406.902344 180 C 434.800781 220.199219 451 269.097656 451 315 C 451 415.199219 374.5 480 256 480 C 137.5 480 61 415.199219 61 315 C 61 269.097656 77.199219 220.199219 105.097656 180 L 106 180 L 15 0 L 106 0 C 161.199219 0 206.5 42.898438 210.699219 96.898438 C 225.398438 92.398438 240.699219 90 256 90 C 271.300781 90 286.601562 92.402344 301.300781 96.898438 C 305.5 42.898438 350.800781 0 406 0 L 496 0 L 406 180 Z M 406.902344 180" style="stroke:none;fill-rule:nonzero;fill:#ffa78f;fill-opacity:1"/><path d="M 406.902344 180 C 434.800781 220.199219 451 269.097656 451 315 C 451 415.199219 374.5 480 256 480 L 256 90 C 271.300781 90 286.601562 92.402344 301.300781 96.898438 C 305.5 42.898438 350.800781 0 406 0 L 496 0 L 406 180 Z M 406.902344 180" style="stroke:none;fill-rule:nonzero;fill:#f89580;fill-opacity:1"/><path d="M 256 240 C 198.101562 240 151 280.5 151 330 C 151 390 216.699219 390 256 390 C 295.300781 390 361 390 361 330 C 361 280.5 313.898438 240 256 240 Z M 256 240" style="stroke:none;fill-rule:nonzero;fill:#ffcebf;fill-opacity:1"/><path d="M 361 330 C 361 390 295.300781 390 256 390 L 256 240 C 313.898438 240 361 280.5 361 330 Z M 361 330" style="stroke:none;fill-rule:nonzero;fill:#ffbfab;fill-opacity:1"/><path d="M 121 106 L 121 165 C 121 173.285156 114.285156 180 106 180 L 105.097656 180 C 47.5 179.398438 0 132.597656 0 75 L 0 15 C 0 6.714844 6.714844 0 15 0 C 73.300781 0 121 47.699219 121 106 Z M 121 106" style="stroke:none;fill-rule:nonzero;fill:#ffcebf;fill-opacity:1"/><path d="M 241 315 C 241 323.285156 234.285156 330 226 330 C 217.714844 330 211 323.285156 211 315 C 211 306.714844 217.714844 300 226 300 C 234.285156 300 241 306.714844 241 315 Z M 241 315" style="stroke:none;fill-rule:nonzero;fill:#7e5d40;fill-opacity:1"/><path d="M 301 315 C 301 323.285156 294.285156 330 286 330 C 277.714844 330 271 323.285156 271 315 C 271 306.714844 277.714844 300 286 300 C 294.285156 300 301 306.714844 301 315 Z M 301 315" style="stroke:none;fill-rule:nonzero;fill:#684d34;fill-opacity:1"/><path d="M 331 195 C 331 203.285156 324.285156 210 316 210 C 307.714844 210 301 203.285156 301 195 C 301 186.714844 307.714844 180 316 180 C 324.285156 180 331 186.714844 331 195 Z M 331 195" style="stroke:none;fill-rule:nonzero;fill:#684d34;fill-opacity:1"/><path d="M 211 195 C 211 203.285156 204.285156 210 196 210 C 187.714844 210 181 203.285156 181 195 C 181 186.714844 187.714844 180 196 180 C 204.285156 180 211 186.714844 211 195 Z M 211 195" style="stroke:none;fill-rule:nonzero;fill:#7e5d40;fill-opacity:1"/><path d="M 496 0 C 504.835938 0 512 7.164062 512 16 L 512 75 C 512 132.597656 464.5 179.398438 406.902344 180 L 406 180 C 397.714844 180 391 173.285156 391 165 L 391 105 C 391 47.011719 438.011719 0 496 0 Z M 496 0" style="stroke:none;fill-rule:nonzero;fill:#ffbfab;fill-opacity:1"/></g></svg>