<svg id="Capa_1" enable-background="new 0 0 512 512" height="512" viewBox="0 0 512 512" width="512" xmlns="http://www.w3.org/2000/svg"><g><g><path d="m472 61c-49.21 0-91.51 29.63-110.02 72.02-32.99-25.96-70.21-42.02-105.98-42.02s-72.99 16.06-105.98 42.02c-18.51-42.39-60.81-72.02-110.02-72.02h-30v88.12c0 34.18 27.7 61.88 61.87 61.88h10.11c-22.2 37.13-35.98 79.06-35.98 120 0 115.98 110.59 120 210 120s210-4.02 210-120c0-40.93-13.78-82.87-35.98-119.99l.01-.01h10.09c34.18 0 61.88-27.7 61.88-61.88v-88.12z" fill="#ffc9d0"/><path d="m256 271c49.71 0 90 26.86 90 60s-40.29 60-90 60-90-26.86-90-60 40.29-60 90-60z" fill="#ffd89e"/></g><g><circle cx="316" cy="211" r="10"/><circle cx="286" cy="331" r="10"/><circle cx="226" cy="331" r="10"/><circle cx="196" cy="211" r="10"/><path d="m156 331c0 19.479 10.942 37.502 30.812 50.748 18.622 12.415 43.194 19.252 69.188 19.252s50.566-6.837 69.188-19.252c19.87-13.246 30.812-31.269 30.812-50.748s-10.942-37.502-30.812-50.748c-18.622-12.415-43.194-19.252-69.188-19.252s-50.566 6.837-69.188 19.252c-19.87 13.246-30.812 31.269-30.812 50.748zm41.905-34.107c15.374-10.249 36.005-15.893 58.095-15.893s42.721 5.644 58.095 15.893c14.126 9.418 21.905 21.53 21.905 34.107s-7.779 24.689-21.905 34.107c-15.374 10.249-36.005 15.893-58.095 15.893s-42.721-5.644-58.095-15.893c-14.126-9.418-21.905-21.53-21.905-34.107s7.779-24.689 21.905-34.107z"/><path d="m502 51h-30c-47.508 0-90.842 25.865-113.621 66.825-33.772-24.129-68.957-36.825-102.379-36.825s-68.607 12.696-102.38 36.824c-22.778-40.959-66.112-66.824-113.62-66.824h-30c-5.522 0-10 4.477-10 10v88.12c0 37.353 28.639 68.13 65.106 71.552-19.083 36.453-29.106 74.291-29.106 110.328 0 118.235 104.766 130 220 130 32.259 0 66.385-.394 97.841-5.1 5.462-.817 9.228-5.908 8.41-11.37-.817-5.462-5.914-9.226-11.369-8.41-30.099 4.503-63.376 4.88-94.882 4.88-109.424 0-200-8.277-200-110 0-109.023 104.664-230 200-230 93.205 0 200 118.971 200 230 0 32.651-9.101 56.897-27.821 74.123-4.064 3.739-4.328 10.065-.589 14.13 3.741 4.064 10.065 4.327 14.131.588 22.746-20.93 34.279-50.82 34.279-88.841 0-36.043-10.024-73.883-29.11-110.328 36.47-3.424 65.11-34.201 65.11-71.551v-88.121c0-5.523-4.478-10-10-10zm-425.618 150h-4.512c-28.601 0-51.87-23.273-51.87-51.88v-78.12h20c41.233 0 78.758 23.02 97.603 59.237-23.471 19.633-44.458 43.881-61.221 70.763zm415.618-51.88c0 28.606-23.273 51.88-51.88 51.88h-4.508c-16.769-26.889-37.751-51.136-61.215-70.763 18.845-36.217 56.37-59.237 97.603-59.237h20z"/><circle cx="396" cy="434.999" r="10"/></g></g></svg>